# xmcd CD database file
#
# Track frame offsets:
#	150
#	4160
#	22639
#	41602
#	59289
#	74540
#	90000
#	102550
#	122689
#	141930
#	161091
#
# Disc length: 2430 seconds
#
# Revision: 0
# Processed by: cddbd v1.5.2PL0 Copyright (c) Steve Scherf et al.
# Submitted via: CDex 1.70beta2
#
DISCID=88097c0b
DTITLE=Crashdiet - Generation Wild
DYEAR=2010
DGENRE=Hair Metal
TTITLE0=442
TTITLE1=Armageddon
TTITLE2=So Alive
TTITLE3=Generation Wild
TTITLE4=Rebel
TTITLE5=Save Her
TTITLE6=Down With The Dust
TTITLE7=Native Nature
TTITLE8=Chemical
TTITLE9=Bound To Fall
TTITLE10=Beautiful Pain
EXTD=YEAR: 2010
EXTT0=
EXTT1=
EXTT2=
EXTT3=
EXTT4=
EXTT5=
EXTT6=
EXTT7=
EXTT8=
EXTT9=
EXTT10=
PLAYORDER=
